<?xml version="1.0" encoding="utf-8"?>
<!-- Generator: Adobe Illustrator 16.0.0, SVG Export Plug-In . SVG Version: 6.00 Build 0)  -->
<!DOCTYPE svg PUBLIC "-//W3C//DTD SVG 1.1//EN" "http://www.w3.org/Graphics/SVG/1.1/DTD/svg11.dtd">
<svg version="1.1" id="Layer_1" xmlns:sketch="http://www.bohemiancoding.com/sketch/ns"
	 xmlns="http://www.w3.org/2000/svg" xmlns:xlink="http://www.w3.org/1999/xlink" x="0px" y="0px" width="64px" height="64px"
	 viewBox="-17.479 -20 64 64" enable-background="new -17.479 -20 64 64" xml:space="preserve">
<title>Twitter</title>
<description>Created with Sketch (http://www.bohemiancoding.com/sketch)</description>
<path fill="#FFFFFF" d="M8.348,10.031c0,0,6.054-0.449,6.054-7.557c0-7.099-4.95-10.564-11.229-10.564H-8.379h-0.341h-8.758V31.6
	h8.758h0.341H3.175c0,0,12.607,0.395,12.607-11.713C15.782,19.887,16.331,10.031,8.348,10.031z M1.688-1.036h1.485
	c0,0,2.808,0,2.808,4.13c0,4.127-1.652,4.729-3.524,4.729H-8.379v-8.859H1.688z M2.593,24.545H-8.379V13.94H3.175
	c0,0,4.185-0.054,4.185,5.451C7.36,24.032,4.233,24.516,2.593,24.545z"/>
<path fill="#FFFFFF" d="M32.6,2.009c-15.264,0-15.254,15.246-15.254,15.246S16.298,32.43,32.6,32.43c0,0,13.577,0.777,13.577-10.559
	h-6.982c0,0,0.229,4.273-6.363,4.273c0,0-6.988,0.463-6.988-6.913h20.57C46.414,19.231,48.663,2.009,32.6,2.009z M25.767,13.94
	c0,0,0.858-6.114,6.989-6.114c6.128,0,6.048,6.114,6.048,6.114H25.767z"/>
<rect x="24.061" y="-5.752" fill="#FFFFFF" width="16.374" height="4.884"/>
</svg>
