<?xml version="1.0" encoding="utf-8"?>
<!-- Generator: Adobe Illustrator 16.0.0, SVG Export Plug-In . SVG Version: 6.00 Build 0)  -->
<!DOCTYPE svg PUBLIC "-//W3C//DTD SVG 1.1//EN" "http://www.w3.org/Graphics/SVG/1.1/DTD/svg11.dtd">
<svg version="1.1" id="Layer_1" xmlns:sketch="http://www.bohemiancoding.com/sketch/ns"
	 xmlns="http://www.w3.org/2000/svg" xmlns:xlink="http://www.w3.org/1999/xlink" x="0px" y="0px" width="64px" height="64px"
	 viewBox="-17 -16.772 64 64" enable-background="new -17 -16.772 64 64" xml:space="preserve">
<title>Dribbble</title>
<description>Created with Sketch (http://www.bohemiancoding.com/sketch)</description>
<g id="Page-1" sketch:type="MSPage">
	<g id="Dribbble" sketch:type="MSArtboardGroup">
		<g sketch:type="MSLayerGroup">
			<path id="Path" sketch:type="MSShapeGroup" fill="#FFFFFF" d="M47,15.225c0,2.173-0.223,4.34-0.66,6.445
				c-0.422,2.055-1.043,4.082-1.867,6.018c-0.797,1.892-1.785,3.719-2.945,5.438c-1.143,1.694-2.457,3.274-3.908,4.728
				c-1.449,1.448-3.039,2.763-4.727,3.904c-1.715,1.155-3.549,2.147-5.439,2.953c-1.93,0.813-3.953,1.444-6.012,1.86
				c-2.109,0.437-4.277,0.656-6.442,0.656c-2.175,0-4.344-0.22-6.446-0.656c-2.055-0.416-4.081-1.047-6.01-1.86
				c-1.902-0.812-3.729-1.798-5.439-2.953c-1.693-1.144-3.289-2.466-4.732-3.904c-1.45-1.448-2.765-3.033-3.908-4.728
				c-1.152-1.716-2.146-3.547-2.951-5.438c-0.815-1.936-1.443-3.963-1.867-6.018C-16.78,19.565-17,17.398-17,15.225
				c0-2.16,0.22-4.332,0.647-6.438c0.424-2.057,1.052-4.08,1.867-6.015c0.805-1.903,1.798-3.73,2.951-5.433
				c1.143-1.7,2.458-3.289,3.908-4.74c1.443-1.446,3.037-2.754,4.732-3.902c1.71-1.156,3.537-2.15,5.439-2.957
				c1.929-0.817,3.955-1.444,6.01-1.86c2.103-0.431,4.271-0.652,6.446-0.652c2.165,0,4.338,0.218,6.442,0.652
				c2.059,0.418,4.082,1.043,6.012,1.86c1.891,0.806,3.725,1.8,5.439,2.957c1.688,1.148,3.277,2.457,4.727,3.902
				c1.451,1.446,2.766,3.04,3.908,4.74c1.16,1.702,2.148,3.529,2.945,5.433c0.824,1.935,1.445,3.958,1.867,6.015
				C46.779,10.893,47,13.065,47,15.225z M3.339-9.486C-4.282-5.889-9.968,1.134-11.74,9.598c0.72,0.004,12.108,0.157,25.227-3.334
				C8.757-2.145,3.708-9.001,3.339-9.486z M15.748,10.467c-14.065,4.212-27.569,3.914-28.054,3.889
				c-0.008,0.297-0.023,0.585-0.023,0.869c0,7.026,2.65,13.423,7,18.271C-5.335,33.48,2.14,20.208,16.887,15.445
				c0.359-0.123,0.721-0.23,1.078-0.33C17.281,13.555,16.533,12.002,15.748,10.467z M33.043-5.279
				C28.229-9.522,21.914-12.094,15-12.094c-2.223,0-4.375,0.268-6.441,0.764c0.405,0.551,5.543,7.361,10.215,15.94
				C29.09,0.743,32.977-5.182,33.043-5.279z M19.834,19.641c-0.064,0.018-0.125,0.035-0.182,0.059
				C3.528,25.318-1.739,36.645-1.794,36.77c4.636,3.615,10.456,5.789,16.796,5.789c3.777,0,7.386-0.771,10.664-2.167
				C25.262,38.001,23.668,29.63,19.834,19.641z M30.268,37.891c6.139-4.139,10.498-10.719,11.707-18.326
				c-0.564-0.181-8.203-2.602-17.02-1.188C28.529,28.223,29.988,36.25,30.268,37.891z M20.879,8.679
				c0.631,1.306,1.248,2.639,1.814,3.97c0.203,0.479,0.398,0.945,0.588,1.416c9.385-1.183,18.631,0.808,19.033,0.887
				c-0.062-6.48-2.375-12.43-6.219-17.083C36.051-2.054,31.662,4.276,20.879,8.679z"/>
		</g>
	</g>
</g>
</svg>
