<?xml version="1.0" encoding="utf-8"?>
<!-- Generator: Adobe Illustrator 16.0.0, SVG Export Plug-In . SVG Version: 6.00 Build 0)  -->
<!DOCTYPE svg PUBLIC "-//W3C//DTD SVG 1.1//EN" "http://www.w3.org/Graphics/SVG/1.1/DTD/svg11.dtd">
<svg version="1.1" id="Layer_1" xmlns="http://www.w3.org/2000/svg" xmlns:xlink="http://www.w3.org/1999/xlink" x="0px" y="0px"
	 width="64px" height="64px" viewBox="-18.5 -15.156 64 64" enable-background="new -18.5 -15.156 64 64" xml:space="preserve">
<path fill="#FFFFFF" d="M13.5-14.692c-17.675,0-32,14.323-32,32.004c0,14.13,9.164,26.123,21.882,30.361
	c1.606,0.284,2.186-0.697,2.186-1.548c0-0.758-0.026-2.768-0.042-5.442c-8.902,1.935-10.778-4.292-10.778-4.292
	c-1.458-3.694-3.556-4.668-3.556-4.668c-2.905-1.991,0.222-1.957,0.222-1.957c3.214,0.23,4.903,3.3,4.903,3.3
	c2.85,4.889,7.49,3.478,9.313,2.662c0.287-2.068,1.116-3.479,2.029-4.282C0.555,30.641-6.914,27.888-6.914,15.63
	c0-3.485,1.249-6.348,3.29-8.58c-0.325-0.812-1.427-4.063,0.315-8.47c0,0,2.685-0.862,8.802,3.282
	c2.548-0.712,5.291-1.066,8.009-1.082c2.721,0.015,5.455,0.369,8.008,1.082c6.115-4.145,8.799-3.282,8.799-3.282
	c1.744,4.407,0.643,7.659,0.315,8.47c2.05,2.232,3.294,5.095,3.294,8.58c0,12.299-7.488,15-14.615,15.797
	c1.144,0.99,2.176,2.937,2.176,5.926c0,4.273-0.043,7.721-0.043,8.773c0,0.858,0.576,1.853,2.199,1.54
	C36.335,43.428,45.5,31.439,45.5,17.313C45.5-0.369,31.179-14.692,13.5-14.692"/>
</svg>
