<?xml version="1.0" encoding="utf-8"?>
<!-- Generator: Adobe Illustrator 16.0.0, SVG Export Plug-In . SVG Version: 6.00 Build 0)  -->
<!DOCTYPE svg PUBLIC "-//W3C//DTD SVG 1.1//EN" "http://www.w3.org/Graphics/SVG/1.1/DTD/svg11.dtd">
<svg version="1.1" id="Layer_1" xmlns:sketch="http://www.bohemiancoding.com/sketch/ns"
	 xmlns="http://www.w3.org/2000/svg" xmlns:xlink="http://www.w3.org/1999/xlink" x="0px" y="0px" width="64px" height="64px"
	 viewBox="-17.479 -20 64 64" enable-background="new -17.479 -20 64 64" xml:space="preserve">
<title>Twitter</title>
<description>Created with Sketch (http://www.bohemiancoding.com/sketch)</description>
<path fill="#FFFFFF" d="M-9.261-19.999h47.574c4.515,0,8.208,3.694,8.208,8.216v47.574c0,4.514-3.693,8.207-8.208,8.207H-9.261
	c-4.522,0-8.218-3.693-8.218-8.207v-47.574C-17.479-16.305-13.783-19.999-9.261-19.999z M29.144-12.894
	c-1.581,0-2.879,1.302-2.879,2.89v6.889c0,1.588,1.298,2.889,2.879,2.889h7.237c1.579,0,2.88-1.3,2.88-2.889v-6.889
	c0-1.588-1.301-2.89-2.88-2.89H29.144z M39.283,7.065h-5.63c0.54,1.744,0.821,3.58,0.821,5.496c0,10.637-8.902,19.268-19.893,19.268
	c-10.987,0-19.896-8.631-19.896-19.268c0-1.916,0.296-3.751,0.828-5.496h-5.875v27.041c0,1.395,1.139,2.531,2.54,2.531H36.75
	c1.395,0,2.532-1.137,2.532-2.531V7.065z M14.582-0.592c-7.095,0-12.849,5.572-12.849,12.458c0,6.875,5.754,12.451,12.849,12.451
	c7.105,0,12.859-5.576,12.859-12.451C27.441,4.979,21.687-0.592,14.582-0.592z"/>
</svg>
