<?xml version="1.0" encoding="utf-8"?>
<!-- Generator: Adobe Illustrator 16.0.0, SVG Export Plug-In . SVG Version: 6.00 Build 0)  -->
<!DOCTYPE svg PUBLIC "-//W3C//DTD SVG 1.1//EN" "http://www.w3.org/Graphics/SVG/1.1/DTD/svg11.dtd">
<svg version="1.1" id="Layer_1" xmlns:sketch="http://www.bohemiancoding.com/sketch/ns"
	 xmlns="http://www.w3.org/2000/svg" xmlns:xlink="http://www.w3.org/1999/xlink" x="0px" y="0px" width="64px" height="64px"
	 viewBox="-17.479 -20 64 64" enable-background="new -17.479 -20 64 64" xml:space="preserve">
<title>Twitter</title>
<description>Created with Sketch (http://www.bohemiancoding.com/sketch)</description>
<path fill="#FFFFFF" d="M46.521-7.849c-2.356,1.043-4.895,1.75-7.544,2.066c2.707-1.625,4.801-4.195,5.77-7.262
	c-2.527,1.504-5.338,2.598-8.33,3.188c-2.396-2.556-5.812-4.149-9.585-4.149c-7.252,0-13.13,5.879-13.13,13.13
	c0,1.03,0.108,2.03,0.336,2.992C3.126,1.569-6.545-3.658-13.027-11.604c-1.129,1.942-1.772,4.195-1.772,6.602
	c0,4.555,2.316,8.574,5.835,10.929c-2.147-0.07-4.172-0.664-5.945-1.643v0.163c0,6.363,4.528,11.672,10.532,12.877
	c-1.1,0.299-2.261,0.458-3.46,0.458c-0.844,0-1.668-0.08-2.469-0.231c1.672,5.215,6.52,9.01,12.266,9.122
	c-4.491,3.52-10.153,5.612-16.309,5.612c-1.059,0-2.101-0.064-3.128-0.186c5.811,3.729,12.713,5.905,20.129,5.905
	c24.148,0,37.352-20.006,37.352-37.357c0-0.566-0.012-1.137-0.03-1.703C42.532-2.905,44.75-5.217,46.521-7.849z"/>
</svg>
